<svg width="100" height="100" viewBox="0 0 100 100" fill="none" xmlns="http://www.w3.org/2000/svg">
<path d="M25.0417 25C25.0417 11.1667 36.227 0 50.0835 0C63.9399 0 75.1252 11.1667 75.1252 25H25.0417ZM25.0417 75C25.0417 61.1667 36.227 50 50.0835 50C36.227 50 25.0417 38.8333 25.0417 25C11.1853 25 0 36.1667 0 50C0 63.8333 11.1853 75 25.0417 75ZM25.0417 75C25.0417 88.8333 36.227 100 50.0835 100C63.9399 100 75.1252 88.8333 75.1252 75H25.0417ZM49.9165 50C63.773 50 74.9583 61.1667 74.9583 75C88.8147 75 100 63.8333 100 50C100 36.1667 88.8147 25 74.9583 25C74.9583 38.8333 63.773 50 49.9165 50Z" fill="#502587"/>
</svg>
